<svg xmlns="http://www.w3.org/2000/svg" width="136.256" height="29.68" viewBox="0 0 136.256 29.68">
  <g id="mobark" transform="translate(-367.76 -168.8)">
    <path id="k" d="M14.12,0a.567.567,0,0,1-.56-.4l-3.2-7.12L9.6-6.36V-.4a.354.354,0,0,1-.4.4H2.08a.354.354,0,0,1-.4-.4V-26.8a.354.354,0,0,1,.4-.4H9.2a.354.354,0,0,1,.4.4v12.52L13-19.2a.881.881,0,0,1,.76-.4H21a.252.252,0,0,1,.26.14.22.22,0,0,1-.06.26l-5.44,6.4L21.96-.4A.364.364,0,0,1,22-.12q-.04.12-.24.12Z" transform="translate(481 197)" fill="none" stroke="#707070" stroke-width="2"/>
    <path id="r" d="M2.08,0a.354.354,0,0,1-.4-.4V-19.2a.354.354,0,0,1,.4-.4h7.2a.354.354,0,0,1,.4.4v1.76h.04a4.119,4.119,0,0,1,2.04-2.02,7.246,7.246,0,0,1,3.04-.62,6.761,6.761,0,0,1,1.84.2q.36.08.24.52l-2.32,7.4q-.2.24-.56.04a7.326,7.326,0,0,0-1.5-.64,2.553,2.553,0,0,0-1.34-.04q-1.48.36-1.48,2.56V-.4a.354.354,0,0,1-.4.4Z" transform="translate(464 197)" fill="none" stroke="#707070" stroke-width="2"/>
    <path id="a" d="M12.76,0a.354.354,0,0,1-.4-.4v-.96h-.04A5.758,5.758,0,0,1,10.3-.02a8.242,8.242,0,0,1-3.1.5A8.144,8.144,0,0,1,4.86.14a5.386,5.386,0,0,1-2-1.08A5.384,5.384,0,0,1,1.48-2.82,6.567,6.567,0,0,1,.96-5.56a6.129,6.129,0,0,1,.66-2.92,5.694,5.694,0,0,1,1.82-2.04,8.435,8.435,0,0,1,2.72-1.2,13.667,13.667,0,0,1,3.4-.4h2.6a.212.212,0,0,0,.24-.24v-.32a1.08,1.08,0,0,0-.66-1.04,7.629,7.629,0,0,0-2.78-.32,9.365,9.365,0,0,0-2.28.28,6.015,6.015,0,0,0-1.8.72q-.36.2-.52-.12l-2.4-4.32a.458.458,0,0,1,.12-.68,10.976,10.976,0,0,1,3.48-1.42,19.318,19.318,0,0,1,4.52-.5,19.873,19.873,0,0,1,4.64.46,7.656,7.656,0,0,1,3.04,1.4,5.192,5.192,0,0,1,1.66,2.38,10.244,10.244,0,0,1,.5,3.36V-.4a.354.354,0,0,1-.4.4ZM10.12-4.96a3.368,3.368,0,0,0,1.76-.34,1.176,1.176,0,0,0,.52-1.06V-7.4a.212.212,0,0,0-.24-.24H10.28a2.217,2.217,0,0,0-1.4.38A1.234,1.234,0,0,0,8.4-6.24Q8.4-4.96,10.12-4.96Z" transform="translate(443 197)" fill="none" stroke="#707070" stroke-width="2"/>
    <path id="b" d="M14.64.48A6.571,6.571,0,0,1,11.6-.16,4.635,4.635,0,0,1,9.72-1.84H9.68V-.4a.354.354,0,0,1-.4.4H2.08a.354.354,0,0,1-.4-.4V-26.8a.354.354,0,0,1,.4-.4h7.2a.354.354,0,0,1,.4.4v9.04h.04a4.635,4.635,0,0,1,1.88-1.68,6.571,6.571,0,0,1,3.04-.64,6.337,6.337,0,0,1,4.04,1.2,6.947,6.947,0,0,1,2.24,3.48,11.928,11.928,0,0,1,.54,2.54A29.751,29.751,0,0,1,21.6-9.8a29.751,29.751,0,0,1-.14,3.06,11.928,11.928,0,0,1-.54,2.54A6.947,6.947,0,0,1,18.68-.72,6.337,6.337,0,0,1,14.64.48ZM11.6-5.92a2.14,2.14,0,0,0,1.04-.24,1.424,1.424,0,0,0,.64-.88A5.373,5.373,0,0,0,13.46-8q.06-.56.06-1.8t-.06-1.8a5.374,5.374,0,0,0-.18-.96,1.423,1.423,0,0,0-.64-.88,2.14,2.14,0,0,0-1.04-.24,2.14,2.14,0,0,0-1.04.24,1.423,1.423,0,0,0-.64.88,5.373,5.373,0,0,0-.18.96q-.06.56-.06,1.8T9.74-8a5.373,5.373,0,0,0,.18.96,1.424,1.424,0,0,0,.64.88A2.14,2.14,0,0,0,11.6-5.92Z" transform="translate(420 197)" fill="none" stroke="#707070" stroke-width="2"/>
    <path id="o" d="M10.92.48A11.758,11.758,0,0,1,5.02-.96a7.511,7.511,0,0,1-3.5-4.4,10.463,10.463,0,0,1-.48-2.2A21.012,21.012,0,0,1,.92-9.8a21.012,21.012,0,0,1,.12-2.24,10.463,10.463,0,0,1,.48-2.2,7.511,7.511,0,0,1,3.5-4.4,11.758,11.758,0,0,1,5.9-1.44,11.758,11.758,0,0,1,5.9,1.44,7.511,7.511,0,0,1,3.5,4.4,10.463,10.463,0,0,1,.48,2.2,21.014,21.014,0,0,1,.12,2.24,21.012,21.012,0,0,1-.12,2.24,10.463,10.463,0,0,1-.48,2.2,7.511,7.511,0,0,1-3.5,4.4A11.758,11.758,0,0,1,10.92.48Zm0-6.4a2.14,2.14,0,0,0,1.04-.24,1.424,1.424,0,0,0,.64-.88A5.374,5.374,0,0,0,12.78-8q.06-.56.06-1.8t-.06-1.8a5.373,5.373,0,0,0-.18-.96,1.424,1.424,0,0,0-.64-.88,2.14,2.14,0,0,0-1.04-.24,2.14,2.14,0,0,0-1.04.24,1.424,1.424,0,0,0-.64.88,5.373,5.373,0,0,0-.18.96Q9-11.04,9-9.8T9.06-8a5.373,5.373,0,0,0,.18.96,1.424,1.424,0,0,0,.64.88A2.14,2.14,0,0,0,10.92-5.92Z" transform="translate(398 197)" fill="none" stroke="#707070" stroke-width="2"/>
    <path id="M" d="M1.76-26.8a.354.354,0,0,1,.4-.4H9.4a1.07,1.07,0,0,1,.4.08.485.485,0,0,1,.28.32l5.6,12.68h.16L21.28-26.8a.485.485,0,0,1,.28-.32,1.07,1.07,0,0,1,.4-.08h7.16a.354.354,0,0,1,.4.4V-.4a.354.354,0,0,1-.4.4H22.36a.354.354,0,0,1-.4-.4V-12.88h-.2l-3.6,8.64a.85.85,0,0,1-.38.42.948.948,0,0,1-.38.1H13.88a.82.82,0,0,1-.36-.1,1.107,1.107,0,0,1-.4-.42l-3.6-8.64h-.2V-.4a.354.354,0,0,1-.4.4H2.16a.354.354,0,0,1-.4-.4Z" transform="translate(367 197)" fill="none" stroke="#707070" stroke-width="2"/>
  </g>
</svg>
